<svg xmlns="http://www.w3.org/2000/svg" width="1180" height="720" viewBox="0 0 1180 720">
<defs><linearGradient id="g" x1="0" y1="0" x2="1" y2="1"><stop offset="0%" stop-color="#0b1f33"/><stop offset="100%" stop-color="#1f4b6f"/></linearGradient></defs>
<rect x="0" y="0" width="1180" height="720" fill="url(#g)"/>
<text x="36" y="54" fill="white" font-size="30" font-family="Segoe UI, Arial" font-weight="700">EGO Planner Simulation Stats</text>
<rect x="34" y="90" width="265" height="132" rx="14" fill="#f8fbff" opacity="0.98"/>
<text x="48" y="124" fill="#425466" font-size="18" font-family="Segoe UI, Arial">Obstacle Clusters(est)</text>
<text x="48" y="182" fill="#0b1f33" font-size="42" font-family="Segoe UI, Arial" font-weight="700">187</text>
<rect x="319" y="90" width="265" height="132" rx="14" fill="#f8fbff" opacity="0.98"/>
<text x="333" y="124" fill="#425466" font-size="18" font-family="Segoe UI, Arial">Replan Count</text>
<text x="333" y="182" fill="#0b1f33" font-size="42" font-family="Segoe UI, Arial" font-weight="700">27394</text>
<rect x="604" y="90" width="265" height="132" rx="14" fill="#f8fbff" opacity="0.98"/>
<text x="618" y="124" fill="#425466" font-size="18" font-family="Segoe UI, Arial">Turn Count</text>
<text x="618" y="182" fill="#0b1f33" font-size="42" font-family="Segoe UI, Arial" font-weight="700">0</text>
<rect x="889" y="90" width="265" height="132" rx="14" fill="#f8fbff" opacity="0.98"/>
<text x="903" y="124" fill="#425466" font-size="18" font-family="Segoe UI, Arial">Duration(s)</text>
<text x="903" y="182" fill="#0b1f33" font-size="42" font-family="Segoe UI, Arial" font-weight="700">24.6</text>
<rect x="34" y="240" width="265" height="132" rx="14" fill="#f8fbff" opacity="0.98"/>
<text x="48" y="274" fill="#425466" font-size="18" font-family="Segoe UI, Arial">Obstacle Voxels(global)</text>
<text x="48" y="332" fill="#0b1f33" font-size="42" font-family="Segoe UI, Arial" font-weight="700">58996</text>
<rect x="319" y="240" width="265" height="132" rx="14" fill="#f8fbff" opacity="0.98"/>
<text x="333" y="274" fill="#425466" font-size="18" font-family="Segoe UI, Arial">Occ Points(peak)</text>
<text x="333" y="332" fill="#0b1f33" font-size="42" font-family="Segoe UI, Arial" font-weight="700">31132</text>
<rect x="604" y="240" width="265" height="132" rx="14" fill="#f8fbff" opacity="0.98"/>
<text x="618" y="274" fill="#425466" font-size="18" font-family="Segoe UI, Arial">Path Length(m)</text>
<text x="618" y="332" fill="#0b1f33" font-size="42" font-family="Segoe UI, Arial" font-weight="700">0.00</text>
<rect x="889" y="240" width="265" height="132" rx="14" fill="#f8fbff" opacity="0.98"/>
<text x="903" y="274" fill="#425466" font-size="18" font-family="Segoe UI, Arial">Avg Replan Intv(s)</text>
<text x="903" y="332" fill="#0b1f33" font-size="42" font-family="Segoe UI, Arial" font-weight="700">0.00</text>
<rect x="34" y="390" width="265" height="132" rx="14" fill="#f8fbff" opacity="0.98"/>
<text x="48" y="424" fill="#425466" font-size="18" font-family="Segoe UI, Arial">Max Speed(m/s)</text>
<text x="48" y="482" fill="#0b1f33" font-size="42" font-family="Segoe UI, Arial" font-weight="700">0.00</text>
<text x="36" y="416" fill="#e7f0f8" font-size="18" font-family="Segoe UI, Arial">Goal reached time: not reached</text>
<text x="36" y="446" fill="#e7f0f8" font-size="16" font-family="Segoe UI, Arial">Obstacle clusters are estimated from global cloud voxel connected-components.</text>
<text x="36" y="472" fill="#e7f0f8" font-size="16" font-family="Segoe UI, Arial">Turn count is measured from odom heading changes above threshold.</text>
</svg>